<svg width="396" height="132" viewBox="0 0 396 132" fill="none" xmlns="http://www.w3.org/2000/svg">
<rect y="12.9849" width="103.529" height="103.88" rx="28.9317" fill="#3692FF"/>
<path d="M49.9902 41.9061C51.2825 46.372 47.8655 51.2931 43.9487 52.4342C40.0319 53.5753 34.6808 51.2086 33.3885 46.7427C32.0962 42.2767 34.8091 36.0888 38.7259 34.9477C43.9487 33.4262 48.6978 37.4401 49.9902 41.9061Z" fill="#222327"/>
<path d="M52.1441 41.9061C50.8518 46.372 54.2688 51.2931 58.1856 52.4342C62.1024 53.5753 67.4535 51.2086 68.7458 46.7427C70.0381 42.2767 67.3252 36.0888 63.4084 34.9477C58.1856 33.4262 53.4364 37.4401 52.1441 41.9061Z" fill="#222327"/>
<path d="M76.3973 74.5325C76.3973 85.8917 65.2591 90.1141 50.066 90.1141C34.8728 90.1141 23.9866 85.8917 23.9866 74.5325C23.9866 61.3192 34.8728 49.6018 50.066 49.6018C65.2591 49.6018 76.3973 60.322 76.3973 74.5325Z" fill="#F3D6DD"/>
<path d="M45.0362 72.2896C45.0362 76.01 42.6483 80.0912 39.3113 80.0912C35.9743 80.0912 30.5837 77.0599 30.5837 71.5025C30.5837 66.282 36.4072 64.4253 42.4247 65.3786C46.1128 65.9629 45.0362 68.5693 45.0362 72.2896Z" fill="#222327"/>
<path d="M42.2448 71.914C42.2448 72.472 42.0769 72.9244 41.2377 72.9244C40.3986 72.9244 40.2307 72.472 40.2307 71.914C40.2307 71.356 40.5664 70.9036 41.2377 70.9036C41.9091 70.9036 42.2448 71.356 42.2448 71.914Z" fill="white"/>
<path d="M55.1867 72.2896C55.1867 76.01 57.5746 80.0912 60.9116 80.0912C64.2486 80.0912 69.6392 77.0599 69.6392 71.5025C69.6392 66.282 63.8157 64.4253 57.7982 65.3786C54.1101 65.9629 55.1867 68.5693 55.1867 72.2896Z" fill="#222327"/>
<path d="M57.9811 71.914C57.9811 72.472 58.1489 72.9244 58.9881 72.9244C59.8273 72.9244 59.9951 72.472 59.9951 71.914C59.9951 71.356 59.6594 70.9036 58.9881 70.9036C58.3167 70.9036 57.9811 71.356 57.9811 71.914Z" fill="white"/>
<path d="M46.2653 77.6711C46.0621 77.3745 45.6569 77.2988 45.3603 77.502C45.0638 77.7052 44.9881 78.1104 45.1913 78.4069L46.2653 77.6711ZM49.9988 76.8704L50.6146 76.6594C50.5244 76.3962 50.277 76.2194 49.9988 76.2194C49.7206 76.2194 49.4731 76.3962 49.383 76.6594L49.9988 76.8704ZM54.8063 78.4069C55.0095 78.1104 54.9338 77.7052 54.6372 77.502C54.3406 77.2988 53.9355 77.3745 53.7323 77.6711L54.8063 78.4069ZM45.1913 78.4069C45.3711 78.6694 45.6978 79.0212 46.1358 79.3118C46.5778 79.6051 47.1684 79.8586 47.8635 79.8586V78.5567C47.491 78.5567 47.1474 78.4206 46.8555 78.2269C46.5595 78.0306 46.3523 77.7981 46.2653 77.6711L45.1913 78.4069ZM47.8635 79.8586C48.719 79.8586 49.3553 79.2483 49.7513 78.7229C50.1694 78.1682 50.4649 77.5184 50.6146 77.0813L49.383 76.6594C49.2658 77.0014 49.0275 77.5202 48.7116 77.9393C48.3736 78.3878 48.0757 78.5567 47.8635 78.5567V79.8586ZM49.383 77.0813C49.5327 77.5184 49.8282 78.1682 50.2463 78.7229C50.6423 79.2483 51.2786 79.8586 52.134 79.8586V78.5567C51.9219 78.5567 51.624 78.3878 51.286 77.9393C50.9701 77.5202 50.7318 77.0014 50.6146 76.6594L49.383 77.0813ZM52.134 79.8586C52.8292 79.8586 53.4197 79.6051 53.8618 79.3118C54.2998 79.0212 54.6264 78.6694 54.8063 78.4069L53.7323 77.6711C53.6452 77.7981 53.438 78.0306 53.1421 78.2269C52.8501 78.4206 52.5065 78.5567 52.134 78.5567V79.8586Z" fill="#222327"/>
<path d="M53.5528 76.2696C53.5528 76.8111 51.1146 77.5003 50.2941 77.717C50.1187 77.7633 49.9378 77.7633 49.7624 77.717C48.9419 77.5003 46.5037 76.8111 46.5037 76.2696C46.5037 75.6186 48.4525 74.9224 50.0283 74.9224C51.6041 74.9224 53.5528 75.6186 53.5528 76.2696Z" fill="#222327"/>
<path d="M49.6068 58.951C39.8124 58.951 36.213 55.51 35.6306 53.4974L40.2893 48.4334L50.3833 46.6804L64.3595 53.4974C63.5183 55.1205 59.4121 58.951 49.6068 58.951Z" fill="#222327"/>
<path fill-rule="evenodd" clip-rule="evenodd" d="M50.9623 95.7631C71.2024 95.7631 86.0404 90.0587 86.0404 74.7124C86.0404 55.5141 71.2024 41.0312 50.9623 41.0312C30.7223 41.0312 16.22 56.8614 16.22 74.7124C16.22 90.0587 30.7223 95.7631 50.9623 95.7631ZM50.1667 89.8693C65.0548 89.8693 75.9693 85.6919 75.9693 74.4537C75.9693 60.3947 65.0548 49.7888 50.1667 49.7888C35.2786 49.7888 24.611 61.3813 24.611 74.4537C24.611 85.6919 35.2786 89.8693 50.1667 89.8693Z" fill="white"/>
<path d="M183.487 54.3344H191.448V63.6226H183.487V82.4644H171.545V70.7878C163.053 72.5127 154.627 73.4416 142.353 73.4416H128.421V64.3524H133.728V45.5106H129.748V36.5541H166.37V45.5106H162.389V63.3572C165.64 62.9592 168.692 62.4947 171.545 61.964V35.8906H183.487V54.3344ZM134.989 98.2544V78.5501H147.196V89.0325H184.814V98.2544H134.989ZM145.67 64.3524C147.329 64.286 148.921 64.286 150.447 64.2197V45.5106H145.67V64.3524ZM257.792 58.9785V68.2667H249.831V98.2544H237.889V87.8383C229.397 90.2931 220.971 91.6863 208.698 91.6863H196.756V37.881H230.724V46.8375H208.698V82.5971C220.839 82.5971 229.463 81.4029 237.889 79.0145V35.8906H249.831V58.9785H257.792ZM324.137 58.9785V68.2667H316.176V98.2544H304.234V35.8906H316.176V58.9785H324.137ZM263.1 91.6863V37.881H297.798V91.6863H263.1ZM275.042 82.5971H285.989V46.9702H275.042V82.5971ZM374.89 35.8906H386.501V71.8493H374.89V35.8906ZM325.464 64.7505C333.226 63.1582 339.064 60.7034 342.315 57.5853L329.444 58.3814V49.7566H345.102V45.5106H330.771V36.5541H356.712V48.4961H360.494V36.2224H371.772V71.8493H360.494V57.7843H354.987C351.471 64.6178 342.647 70.257 329.245 73.6406L325.464 64.7505ZM332.695 88.7671C349.082 88.17 353.859 84.7865 353.859 79.0145V73.9723H365.801V80.076C365.801 81.6683 365.602 83.1942 365.204 84.5874C372.9 85.1182 380.53 86.1797 386.501 87.5729L383.316 98.2544C376.483 95.866 366.929 93.5439 359.233 92.2834C353.726 95.9987 344.903 97.79 333.956 98.2544L332.695 88.7671Z" fill="#3692FF"/>
</svg>
