<svg width="198" height="66" viewBox="0 0 198 66" fill="none" xmlns="http://www.w3.org/2000/svg">
<rect y="6.49243" width="51.7647" height="51.9399" rx="14.4658" fill="#3692FF"/>
<path d="M24.9948 20.953C25.641 23.186 23.9325 25.6465 21.9741 26.2171C20.0157 26.7876 17.3402 25.6043 16.694 23.3713C16.0479 21.1383 17.4043 18.0444 19.3627 17.4739C21.9741 16.7131 24.3487 18.7201 24.9948 20.953Z" fill="#222327"/>
<path d="M26.0721 20.953C25.4259 23.186 27.1344 25.6465 29.0928 26.2171C31.0512 26.7876 33.7267 25.6043 34.3729 23.3713C35.019 21.1383 33.6626 18.0444 31.7042 17.4739C29.0928 16.7131 26.7182 18.7201 26.0721 20.953Z" fill="#222327"/>
<path d="M38.198 37.2661C38.198 42.9458 32.629 45.0569 25.0324 45.0569C17.4358 45.0569 11.9927 42.9458 11.9927 37.2661C11.9927 30.6595 17.4358 24.8008 25.0324 24.8008C32.629 24.8008 38.198 30.1609 38.198 37.2661Z" fill="#F3D6DD"/>
<path d="M22.5182 36.1448C22.5182 38.005 21.3243 40.0456 19.6558 40.0456C17.9873 40.0456 15.292 38.53 15.292 35.7513C15.292 33.141 18.2037 32.2126 21.2125 32.6893C23.0565 32.9815 22.5182 34.2847 22.5182 36.1448Z" fill="#222327"/>
<path d="M21.1227 35.9569C21.1227 36.2359 21.0388 36.4621 20.6192 36.4621C20.1996 36.4621 20.1157 36.2359 20.1157 35.9569C20.1157 35.6779 20.2836 35.4517 20.6192 35.4517C20.9549 35.4517 21.1227 35.6779 21.1227 35.9569Z" fill="white"/>
<path d="M27.5936 36.1448C27.5936 38.005 28.7876 40.0456 30.456 40.0456C32.1245 40.0456 34.8198 38.53 34.8198 35.7513C34.8198 33.141 31.9081 32.2126 28.8994 32.6893C27.0553 32.9815 27.5936 34.2847 27.5936 36.1448Z" fill="#222327"/>
<path d="M28.99 35.9569C28.99 36.2359 29.074 36.4621 29.4936 36.4621C29.9132 36.4621 29.9971 36.2359 29.9971 35.9569C29.9971 35.6779 29.8292 35.4517 29.4936 35.4517C29.1579 35.4517 28.99 35.6779 28.99 35.9569Z" fill="white"/>
<path d="M23.1323 38.8356C23.0307 38.6874 22.8281 38.6495 22.6798 38.7511C22.5315 38.8527 22.4937 39.0553 22.5953 39.2036L23.1323 38.8356ZM24.999 38.4353L25.3069 38.3298C25.2618 38.1982 25.1381 38.1098 24.999 38.1098C24.8599 38.1098 24.7362 38.1982 24.6911 38.3298L24.999 38.4353ZM27.4028 39.2036C27.5044 39.0553 27.4665 38.8527 27.3182 38.7511C27.17 38.6495 26.9674 38.6874 26.8658 38.8356L27.4028 39.2036ZM22.5953 39.2036C22.6852 39.3348 22.8485 39.5107 23.0675 39.656C23.2885 39.8027 23.5838 39.9294 23.9314 39.9294V39.2785C23.7451 39.2785 23.5733 39.2104 23.4274 39.1136C23.2794 39.0154 23.1758 38.8992 23.1323 38.8356L22.5953 39.2036ZM23.9314 39.9294C24.3591 39.9294 24.6773 39.6243 24.8753 39.3616C25.0843 39.0842 25.2321 38.7593 25.3069 38.5408L24.6911 38.3298C24.6325 38.5008 24.5134 38.7602 24.3554 38.9698C24.1864 39.194 24.0375 39.2785 23.9314 39.2785V39.9294ZM24.6911 38.5408C24.766 38.7593 24.9137 39.0842 25.1228 39.3616C25.3208 39.6243 25.6389 39.9294 26.0666 39.9294V39.2785C25.9606 39.2785 25.8116 39.194 25.6426 38.9698C25.4847 38.7602 25.3655 38.5008 25.3069 38.3298L24.6911 38.5408ZM26.0666 39.9294C26.4142 39.9294 26.7095 39.8027 26.9305 39.656C27.1495 39.5107 27.3128 39.3348 27.4028 39.2036L26.8658 38.8356C26.8222 38.8992 26.7187 39.0154 26.5707 39.1136C26.4247 39.2104 26.2529 39.2785 26.0666 39.2785V39.9294Z" fill="#222327"/>
<path d="M26.7756 38.1348C26.7756 38.4056 25.5565 38.7502 25.1462 38.8585C25.0585 38.8816 24.9681 38.8816 24.8804 38.8585C24.4701 38.7502 23.251 38.4056 23.251 38.1348C23.251 37.8093 24.2254 37.4612 25.0133 37.4612C25.8012 37.4612 26.7756 37.8093 26.7756 38.1348Z" fill="#222327"/>
<path d="M24.803 29.4756C19.9058 29.4756 18.1061 27.7551 17.8149 26.7488L20.1443 24.2168L25.1913 23.3403L32.1794 26.7488C31.7588 27.5604 29.7057 29.4756 24.803 29.4756Z" fill="#222327"/>
<path fill-rule="evenodd" clip-rule="evenodd" d="M25.4811 47.8815C35.6011 47.8815 43.0201 45.0293 43.0201 37.3562C43.0201 27.7571 35.6011 20.5156 25.4811 20.5156C15.361 20.5156 8.10986 28.4307 8.10986 37.3562C8.10986 45.0293 15.361 47.8815 25.4811 47.8815ZM25.0827 44.9347C32.5268 44.9347 37.984 42.846 37.984 37.2269C37.984 30.1974 32.5268 24.8944 25.0827 24.8944C17.6387 24.8944 12.3049 30.6906 12.3049 37.2269C12.3049 42.846 17.6387 44.9347 25.0827 44.9347Z" fill="white"/>
<path d="M91.7431 27.6673H95.7238V32.3114H91.7431V41.7323H85.7721V35.894C81.5261 36.7565 77.3132 37.2209 71.1764 37.2209H64.2102V32.6763H66.864V23.2554H64.8736V18.7772H83.1847V23.2554H81.1944V32.1787C82.8198 31.9797 84.3457 31.7475 85.7721 31.4821V18.4454H91.7431V27.6673ZM67.4942 49.6273V39.7752H73.5979V45.0164H92.4066V49.6273H67.4942ZM72.835 32.6763C73.6643 32.6431 74.4604 32.6431 75.2234 32.61V23.2554H72.835V32.6763ZM128.896 29.9894V34.6335H124.915V49.6273H118.944V44.4193C114.698 45.6466 110.485 46.3433 104.349 46.3433H98.3776V19.4406H115.362V23.9189H104.349V41.7987C110.419 41.7987 114.731 41.2016 118.944 40.0074V18.4454H124.915V29.9894H128.896ZM162.068 29.9894V34.6335H158.088V49.6273H152.117V18.4454H158.088V29.9894H162.068ZM131.55 46.3433V19.4406H148.899V46.3433H131.55ZM137.521 41.7987H142.994V23.9852H137.521V41.7987ZM187.445 18.4454H193.25V36.4248H187.445V18.4454ZM162.732 32.8753C166.613 32.0792 169.532 30.8518 171.157 29.2928L164.722 29.6908V25.3784H172.551V23.2554H165.385V18.7772H178.356V24.7482H180.247V18.6113H185.886V36.4248H180.247V29.3923H177.493C175.735 32.809 171.323 35.6286 164.622 37.3204L162.732 32.8753ZM166.347 44.8837C174.541 44.5851 176.929 42.8934 176.929 40.0074V37.4863H182.9V40.5381C182.9 41.3343 182.801 42.0972 182.602 42.7938C186.45 43.0592 190.265 43.59 193.25 44.2866L191.658 49.6273C188.241 48.4331 183.464 47.2721 179.616 46.6418C176.863 48.4995 172.451 49.3951 166.978 49.6273L166.347 44.8837Z" fill="#3692FF"/>
</svg>
